<?xml version="1.0" encoding="UTF-8"?>
<!-- Generator: visioncortex VTracer 0.6.4 -->
<svg version="1.1" xmlns="http://www.w3.org/2000/svg" width="486" height="430">
<path d="M0 0 C160.38 0 320.76 0 486 0 C486 141.9 486 283.8 486 430 C325.62 430 165.24 430 0 430 C0 288.1 0 146.2 0 0 Z " fill="#191A33" transform="translate(0,0)"/>
<path d="M0 0 C5.677002737368241 3.9610511776044746 10.749102509066347 8.41391603138149 15.75 13.1875 C16.363593750000007 13.726328125000009 16.977187500000014 14.26515624999999 17.609375 14.8203125 C27.658677738735037 23.993758578019566 35.879267408869566 38.89600810306621 38.75 52.1875 C38.9975 53.280624999999986 39.245000000000005 54.37375 39.5 55.5 C38.60377734661222 59.90642804582319 37.85007362712878 60.33879671429327 34.25 62.8125 C22.81810650422466 69.32192007535792 9.133996908648555 73.78349922716214 -4 70.5 C-6.25 69.1875 -6.25 69.1875 -7.33203125 66.75390625 C-7.693613281250009 65.26697265625 -7.693613281250009 65.26697265625 -8.0625 63.75 C-11.39083251000659 52.69091907033669 -18.102308112455063 44.66041247867594 -28.25 39.1875 C-34.67739554310961 36.249262037435585 -41.13414680824883 33.562018589039525 -48.25 33.1875 C-49.2644921875 33.125625000000014 -50.27898437499999 33.06375 -51.32421875 33 C-70.9200393376056 32.31015813112941 -84.42434951368895 41.3493988445463 -98.78515625 53.46875 C-103.0263664197102 57.03562162800492 -107.3890668522074 60.41334545856637 -111.8125 63.75 C-118.15586373542419 68.54655776359314 -124.3609961645765 73.48333722841707 -130.511962890625 78.523681640625 C-134.54009753120852 81.81788705841623 -138.61161734124755 85.03274770225642 -142.75 88.1875 C-148.36186955255573 92.46585599551275 -153.83565302474602 96.89479459279335 -159.297607421875 101.3623046875 C-163.50104780661462 104.79149373526013 -167.7492382565034 108.14774608074964 -172.0625 111.4375 C-173.1027734375 112.23671875000002 -174.14304687499998 113.03593749999999 -175.21484375 113.859375 C-177.22167865738498 115.39872326872774 -179.23462988956004 116.9301337268463 -181.25390625 118.453125 C-192.33326701050478 127.07543024490985 -197.84817576332054 136.9820272899616 -202.25 150.1875 C-202.4800840584678 153.57920970894298 -202.4351705218794 156.9762914220301 -202.4375 160.375 C-202.455869140625 161.75655273437502 -202.455869140625 161.75655273437502 -202.474609375 163.166015625 C-202.5029285142243 176.46657134734465 -197.769261319323 188.8250763358211 -188.6875 198.625 C-178.3081875393126 208.2583985682527 -165.2716626037482 212.72193340084976 -151.234375 212.5 C-135.70707380140954 211.28217245501253 -125.0389155956828 203.97841029151124 -113.66015625 194.10546875 C-110.33459069522434 191.23195885136533 -106.90777438415034 188.5083304613404 -103.4375 185.8125 C-98.38075294280924 181.87916127858097 -93.39314892580546 177.87241098862307 -88.4375 173.8125 C-82.17267211903587 168.68673173375657 -75.78503202601354 163.74673394690512 -69.333740234375 158.858642578125 C-65.13540202540935 155.66542424049658 -61.03478184672528 152.39771102882128 -57 149 C-55.08381350564153 147.39525979535824 -53.167134031851134 145.7911080909854 -51.25 144.1875 C-50.69795898437499 143.72085937500003 -50.14591796875001 143.25421875 -49.5771484375 142.7734375 C-47.85741371299838 141.33051930153988 -46.118991812214915 139.91344915413822 -44.375 138.5 C-43.851318359375 138.05309814453125 -43.32763671875 137.6061962890625 -42.7880859375 137.145751953125 C-40.17930512113412 135.06596928889712 -38.67860368663017 134.18124716107036 -35.3046875 134.23046875 C-31.831108435590238 135.3187384057294 -28.587181223301684 136.73514143305556 -25.25 138.1875 C-9.280600775006121 143.17168618817658 8.257169535775631 144.05683259844352 24.75 141.1875 C23.205023953641387 145.1933360962472 20.42014525623881 147.47398874417212 17.1875 150.125 C16.618137207031225 150.5995361328125 16.048774414062507 151.07407226562498 15.462158203125 151.56298828125 C10.178365938602951 155.9240113029531 4.733038458790077 160.06922115700866 -0.729736328125 164.2021484375 C-5.734913015626944 167.99736247039255 -10.641446979031059 171.894109710586 -15.5 175.875 C-20.21774777634147 179.74013584836143 -24.962149446130354 183.5523631218308 -29.8125 187.25 C-34.486825959234466 190.8163375837122 -39.10333720866845 194.44356465065374 -43.6875 198.125 C-48.54345153169206 202.02470261468193 -53.4125018156453 205.90574556808872 -58.3125 209.75 C-58.88750244140624 210.20125244140627 -59.46250488281251 210.65250488281254 -60.054931640625 211.117431640625 C-62.926136704002516 213.3691436604082 -65.80007211302157 215.6173253543103 -68.67578125 217.86328125 C-69.82563793657448 218.76287117193124 -70.97537698627923 219.66261147711293 -72.125 220.5625 C-72.69669921875001 221.00899902343747 -73.2683984375 221.455498046875 -73.857421875 221.91552734375 C-77.0196482178469 224.3962393885696 -80.14236904826765 226.91573654323383 -83.23046875 229.48828125 C-91.22398203518989 236.13564972328868 -99.09919502772271 242.17434603091493 -108.25 247.1875 C-109.07886718750001 247.64382812500003 -109.90773437499999 248.10015625 -110.76171875 248.5703125 C-113.54624544884416 249.9603901926726 -116.33469658570209 251.09426121963827 -119.25 252.1875 C-120.28447265624999 252.57881103515626 -120.28447265624999 252.57881103515626 -121.33984375 252.97802734375 C-145.39611651930232 261.76586897722405 -171.13644432716126 260.5809038691641 -194.40185546875 250.05419921875 C-215.58817663220907 240.1187381711569 -230.40627903122586 224.78105780473334 -241.25 204.1875 C-241.7346875 203.318671875 -242.219375 202.44984375 -242.71875 201.5546875 C-252.93106221000596 181.69049484761035 -253.59020899227713 154.11328178972695 -246.88720703125 133.10205078125 C-246.57178955078126 132.15434814453124 -246.57178955078126 132.15434814453124 -246.25 131.1875 C-246.0410107421875 130.54667480468754 -245.832021484375 129.90584960937497 -245.61669921875 129.24560546875 C-240.780410273398 114.8744007899399 -232.80675567296927 103.02957339386035 -222.25 92.1875 C-221.6273828125 91.51460937500002 -221.004765625 90.84171874999998 -220.36328125 90.1484375 C-215.09072154460216 84.59953818740101 -209.09132000640687 80.09144992905834 -202.994140625 75.50830078125 C-200.09340461284916 73.31163479220521 -197.23369586597778 71.06345114045504 -194.375 68.8125 C-193.7966943359375 68.35770263671876 -193.218388671875 67.90290527343751 -192.62255859375 67.434326171875 C-188.31443110621677 64.04020588082835 -184.0294380881797 60.61768525827739 -179.75 57.1875 C-170.48730329849383 49.7629818687152 -161.16873144856842 42.41323895122099 -151.75 35.1875 C-147.29681485671114 31.769907949836295 -142.85615451135465 28.33716040319652 -138.4375 24.875 C-137.5720959472656 24.197396240234383 -137.5720959472656 24.197396240234383 -136.689208984375 23.506103515625 C-133.5383475176494 21.026928924628294 -130.4213440193089 18.51338832781329 -127.3359375 15.953125 C-90.55376707877343 -14.53954083853543 -43.09724567449638 -27.52979951830946 0 0 Z " fill="#FBFBFA" transform="translate(254.25,159.8125)"/>
<path d="M0 0 C1.0066772460937727 0.228647460937502 2.0133544921874886 0.4572949218749969 3.050537109375 0.69287109375 C6.073564311950008 1.4081360701233763 9.086077774330306 2.1569119736773814 12.096588134765625 2.922943115234375 C29.032645429393085 7.219193315254131 46.09563288535662 10.860999505035636 63.20166015625 14.409912109375 C73.2695138726906 16.508001604920054 83.26735996422428 18.758388699745296 93.23257446289063 21.301742553710938 C99.1844603183892 22.816297419905084 105.14702140245186 24.134528272175785 111.1875 25.25 C119.87326227988876 26.87326227988879 119.87326227988876 26.87326227988879 121 28 C121.27349153688397 31.60129490482535 121.18701089754438 35.22576199435082 121.18359375 38.8359375 C121.18207557678221 40.60775894165039 121.18207557678221 40.60775894165039 121.18052673339844 42.415374755859375 C121.06677651672248 60.20344160292015 120.08120430716394 77.96888992705794 119.20404052734375 95.73211669921875 C119.01356551179356 99.62515003774143 118.8300956716044 103.51850074722 118.64673709869385 107.41187477111816 C118.46807590817673 111.19535714639284 118.28636280612625 114.97868780029947 118.10360527038574 118.7619743347168 C118.01725794076037 120.55196435078864 117.93154625876178 122.34198515882713 117.84651374816895 124.13203811645508 C117.72748187917944 126.62284526746379 117.60464131586969 129.113436159463 117.480712890625 131.60400390625 C117.44690521240238 132.32404098510742 117.41309753417966 133.04407806396483 117.37826538085938 133.7859344482422 C117.2727850528496 135.85919828222748 117.14222331122073 137.92894655502502 117 140 C116.95233427047731 140.7955617904663 116.90466854095462 141.59112358093262 116.85555839538574 142.41079330444336 C116.79179574966429 143.2082207107544 116.72803310394283 144.00564811706542 116.66233825683594 144.82723999023438 C116.58319262027737 145.91157349586487 116.58319262027737 145.91157349586487 116.50244808197021 147.01781272888184 C115.49096904751855 151.0081570829317 112.0094914150742 152.88100513094173 108.75 155.0625 C107.19840810567098 156.17204434893148 105.64766622474247 157.28277806381504 104.09765625 158.39453125 C103.27152832031254 158.9741259765625 102.44540039062497 159.553720703125 101.59423828125 160.15087890625 C97.03641436933663 163.39960451408288 92.62377705771382 166.83827650432107 88.1875 170.25 C81.81306556949022 175.11295883630336 75.41777905339791 179.94577012604157 68.99609375 184.74609375 C65.25347861781529 187.56159431228238 61.53218215100861 190.40430724703612 57.8125 193.25 C57.09521728515625 193.79760986328125 56.377934570312505 194.3452197265625 55.638916015625 194.909423828125 C51.928314101714136 197.74533961475004 48.23119246355907 200.59655266725161 44.5546875 203.4765625 C19.606124253061296 222.95531282594692 -8.271506803898887 233.48830303228442 -40.421875 229.7158203125 C-63.717400493069306 225.9180794869253 -86.55194263882044 212.62877183164858 -101 194 C-107.9503279707628 184.32869256834283 -117.4674438740555 169.8615578591063 -116.87890625 157.4453125 C-114.88155961330685 151.88825030191146 -107.84930841266922 149.5122027888468 -102.90234375 146.88671875 C-94.57924828931255 143.39532085297205 -83.29059982283147 143.95271402824497 -74.56640625 145.6796875 C-72 147 -72 147 -70.8203125 149.43359375 C-70.59085937500001 150.4248828125 -70.36140625000002 151.416171875 -70.125 152.4375 C-66.86216405265273 163.58998024626075 -60.12167016655343 171.4251172902388 -50 177 C-37.90738347340084 183.57316499993564 -23.85875240856717 183.74135163522837 -10.5625 180.9375 C0.45233129927811433 177.5804516967088 9.059677828324766 171.44011463244465 17.55859375 163.953125 C21.183480927415303 160.78568659606182 25.003297296233256 157.91930844896842 28.875 155.0625 C34.25580237283771 151.08294151558647 39.54300883299152 147.0171403354777 44.75 142.8125 C49.39584148684594 139.06908376188034 54.060193819284564 135.3577755076873 58.8125 131.75 C59.767695312499995 131.02296875 60.72289062499999 130.2959375 61.70703125 129.546875 C64 128 64 128 66 128 C65.98952636718752 127.22325927734374 65.97905273437499 126.44651855468749 65.96826171875 125.646240234375 C65.73732854417369 105.6646742240435 66.44605366235203 85.92233595912765 68 66 C66.77023437499997 65.8878515625 65.54046875 65.775703125 64.2734375 65.66015625 C58.30107674083365 64.99178189489672 52.4900512067486 63.72516537772225 46.625 62.4375 C45.41674560546875 62.1750146484375 44.208491210937495 61.91252929687499 42.963623046875 61.64208984375 C19.98192753115245 56.620536185314904 -2.9354548986889313 51.32667927024059 -25.784423828125 45.732421875 C-31.427587688667813 44.3508272033023 -37.069509248842536 42.97013164764634 -42.734375 41.6796875 C-43.540522460937495 41.49567382812501 -44.34666992187499 41.31166015625 -45.17724609375 41.1220703125 C-47.16639525330203 40.67218054479861 -49.15731994530674 40.23015893551175 -51.1484375 39.7890625 C-54 39 -54 39 -57 37 C-49.14965838461404 30.218708970449114 -41.00801043857018 23.92491481066601 -32.654052734375 17.777099609375 C-28.470794798099632 14.679891142022583 -24.393882303810813 11.538391112087808 -20.47265625 8.11328125 C-19.76786132812498 7.504602050781244 -19.063066406250016 6.895922851562503 -18.3369140625 6.268798828125 C-17.02713347236636 5.124399361709408 -15.734573243184627 3.9598537165897483 -14.4638671875 2.772216796875 C-9.493675247123349 -1.5458240710409683 -6.255548518447654 -1.5008637212096048 0 0 Z " fill="#FBFBFB" transform="translate(287,61)"/>
<path d="M0 0 C7.603847292482442 0.5005667496618535 14.800738331817797 2.262112303467191 22.1875 4.0625 C34.167508064749654 6.935567125300711 46.18788431241023 9.558096798980934 58.25 12.0625 C70.06570502820273 14.518326425384316 81.84464843446096 17.071633350034606 93.59228515625 19.838623046875 C106.33972205626497 22.819464127557204 119.17291740054088 25.3887749554968 132 28 C131.96143386840822 29.189492492675782 131.96143386840822 29.189492492675782 131.92208862304688 30.40301513671875 C131.8204857429647 33.58157687617892 131.72100443654432 36.76019622395152 131.6233253479004 39.938880920410156 C131.57727438642428 41.437056161640044 131.53084995018332 42.93521996614423 131.48406600952148 44.433372497558594 C131.16248532941847 54.824804096088 130.94017459731288 65.21283527864432 130.81524276733398 75.60848236083984 C130.7189325086863 83.23585212582789 130.54865575589872 90.85992472927306 130.3378028869629 98.4849624633789 C130.2052322033694 103.39539088793813 130.109084740119 108.30159983234931 130.08740234375 113.2138671875 C129.89519456076232 147.94025932231486 129.89519456076232 147.94025932231486 122.78955078125 155.60791015625 C118.92695999056224 158.81335574401498 114.85904810419265 161.0437627842224 110.24520874023438 162.983154296875 C106.92292979060767 164.48780061949617 104.42818201607088 166.55326733742112 101.625 168.875 C100.63242187499998 169.64328125 99.63984375000001 170.4115625 98.6171875 171.203125 C98.07030273437499 171.62658203125 97.52341796874998 172.0500390625 96.9599609375 172.486328125 C92.56680073996279 175.87915239315282 88.15895878315752 179.252748323115 83.75 182.625 C82.80721191406246 183.3492919921875 81.86442382812504 184.073583984375 80.89306640625 184.81982421875 C80.01569824218751 185.4902978515625 79.13833007812502 186.160771484375 78.234375 186.8515625 C77.442568359375 187.4582275390625 76.65076171875 188.064892578125 75.8349609375 188.68994140625 C74 190 74 190 73 190 C74.81398785692204 134.518733880716 74.81398785692204 134.518733880716 76.3154296875 113 C77.33134608802436 98.01829308142436 77.65504813394159 83.0096129036132 78 68 C76.71609375000003 67.9187890625 75.4321875 67.837578125 74.109375 67.75390625 C66.85300523211163 67.02292996819625 59.831144363426574 65.23113692270258 52.75390625 63.536376953125 C48.40733625664501 62.49677709024476 44.05548063044955 61.47990854868519 39.703125 60.46484375 C38.80976440429686 60.25636810302734 37.91640380859377 60.04789245605468 36.9959716796875 59.833099365234375 C28.025218111046115 57.75217400800365 19.01775076088404 55.864464916629274 10 54 C-2.730852548484904 51.357169561554144 -15.436403099798781 48.6172096031481 -28.11328125 45.7255859375 C-29.86075429044547 45.32755041162075 -31.608798057589524 44.93201167245179 -33.357421875 44.5390625 C-35.77651721599682 43.994439647593616 -38.19318429808419 43.44016066438072 -40.609375 42.8828125 C-41.331390991210924 42.72168975830078 -42.05340698242185 42.56056701660156 -42.79730224609375 42.394561767578125 C-47.77077568800479 41.22922431199522 -47.77077568800479 41.22922431199522 -50 39 C-41.11294569732138 32.065178710306064 -32.215242025407576 25.146073515607874 -23.25 18.3125 C-17.805086898705497 14.160524010408551 -12.38484541828069 9.97965525022127 -7 5.75 C-6.406064453124998 5.28376220703125 -5.8121289062499955 4.8175244140625 -5.2001953125 4.337158203125 C-2.512503860763445 2.269542041833093 -2.512503860763445 2.269542041833093 0 0 Z " fill="#FAFAFA" transform="translate(348,7)"/>
<path d="M0 0 C8.00698314142329 0.9013758401623306 15.812863746757586 2.632136433080788 23.662109375 4.405517578125 C25.087772615226044 4.7231863293712735 26.5135547397108 5.040321994341724 27.939453125 5.35693359375 C30.73704080342378 5.97903947860182 33.533906718884225 6.604225322014415 36.330078125 7.232666015625 C40.494358065610925 8.167612658764199 44.66095398454422 9.091720884393752 48.828125 10.013671875 C51.940337642243776 10.702851180819039 55.0513273824684 11.39741216035057 58.162109375 12.093017578125 C58.162109375 12.753017578124997 58.162109375 13.413017578124993 58.162109375 14.093017578125 C56.072896692410154 15.881190969275352 53.976340885710215 17.560027606932067 51.787109375 19.218017578125 C50.49592489872782 20.203923903081233 49.20556520894729 21.190911301819284 47.916015625 22.178955078125 C47.27680175781251 22.66847656249999 46.637587890625014 23.157998046875008 45.97900390625 23.662353515625 C42.71049208225281 26.236054038149007 39.6191532123176 29.030086863711176 36.541015625 31.827392578125 C33.07417277562183 33.67182128616855 30.93068467382895 32.977602776885476 27.162109375 32.093017578125 C24.85100870728118 31.33756667649027 22.558400874374826 30.523346643078867 20.287109375 29.655517578125 C9.676031451149498 25.606871673239 -0.11904083912367014 24.723957452742553 -11.400390625 24.468017578125 C-12.80470943785457 24.429751876724055 -14.209006937907986 24.39069545708375 -15.61328125 24.350830078125 C-19.021356667738388 24.25713728313562 -22.42943485311443 24.171416841321246 -25.837890625 24.093017578125 C-21.79775016123719 15.583312217895099 -13.340022692679696 9.695983657413862 -6.123046875 3.940673828125 C-1.3326949291961796 0.06744909245799136 -1.3326949291961796 0.06744909245799136 0 0 Z " fill="#F9F9F9" transform="translate(215.837890625,108.906982421875)"/>
</svg>
