<?xml version="1.0" encoding="UTF-8"?>
<!-- Generator: visioncortex VTracer 0.6.4 -->
<svg version="1.1" xmlns="http://www.w3.org/2000/svg" width="514" height="459">
<path d="M0 0 C169.62 0 339.24 0 514 0 C514 151.47 514 302.94 514 459 C344.38 459 174.76 459 0 459 C0 307.53 0 156.06 0 0 Z " fill="#FBFBFB" transform="translate(0,0)"/>
<path d="M0 0 C1.2052734375000114 0.33644531249998977 2.4105468749999943 0.672890625000008 3.65234375 1.01953125 C12.618979357798167 3.6189793577981675 12.618979357798167 3.6189793577981675 15 6 C16.964888308999377 6.887786921444132 16.964888308999377 6.887786921444132 19.125 7.625 C19.849453125000025 7.885390625000014 20.573906249999993 8.145781249999999 21.3203125 8.4140625 C21.874609374999977 8.607421875 22.42890625000001 8.80078125 23 9 C23 9.659999999999997 23 10.319999999999993 23 11 C23.86109375000001 11.237187500000005 24.722187500000018 11.474375000000009 25.609375 11.71875 C29.33183697247722 13.125394616327782 32.16868186193909 15.050938975713336 35.25 17.5 C35.81501220703126 17.945773925781253 36.38002441406252 18.391547851562507 36.962158203125 18.850830078125 C54.27898362612632 32.744874816077356 65.6870747708931 50.362444178665214 71 72 C71 73.32 71 74.63999999999999 71 76 C68.8573482891178 77.25572191306324 66.71111592302645 78.50455356568659 64.5625 79.75 C63.97017578125002 80.098046875 63.377851562499984 80.44609374999999 62.767578125 80.8046875 C60.8625047751562 81.90494376621996 58.937429457503356 82.95783884603082 57 84 C56.32702880859375 84.379306640625 55.654057617187505 84.75861328125 54.960693359375 85.1494140625 C48.48287227807623 88.46820226962524 42.60987881282631 88.47481235579684 35.4375 88.25 C34.333417968749984 88.23195312500002 33.229335937500025 88.21390624999998 32.091796875 88.1953125 C29.393600185897014 88.14859047940948 26.697279652704424 88.08310139941972 24 88 C23.564296875000025 86.806328125 23.128593749999993 85.61265624999999 22.6796875 84.3828125 C17.058546968719213 69.41726719338965 9.168003878656577 58.63703381790401 -5.5625 51.625 C-20.022076380785194 45.8818290649254 -36.64094286059398 46.24258693329938 -51 52 C-60.81243847886742 56.51294805204151 -68.80812222718399 63.510091720054845 -77.0302734375 70.373046875 C-79.97586856689247 72.80604711573767 -82.98432561725119 75.15485902557737 -86 77.5 C-91.07327405285108 81.45812534722225 -96.07985563320494 85.49096774599033 -101.0625 89.5625 C-106.84854446294881 94.28850578271391 -112.71487169262909 98.87668435972711 -118.65625 103.40625 C-123.19750265463672 106.89952127279747 -127.61317965023139 110.54774202940115 -132.047607421875 114.1748046875 C-136.25098918052134 117.60394590778105 -140.49807480799504 120.96183101820452 -144.8125 124.25 C-149.70105763642113 127.9826425302723 -154.50694059906675 131.79253532973576 -159.23828125 135.72265625 C-161.17336157454585 137.3183448344558 -163.1312933003195 138.8865355045271 -165.10546875 140.43359375 C-176.4499098829028 149.38834530205145 -184.40386813635752 160.57391066001662 -187.65234375 174.87109375 C-189.576424210278 192.18781789250193 -187.6993622409667 206.6502944239718 -176.8203125 220.84375 C-168.4934465724374 230.40956137699231 -157.61832251070345 239.20016498712232 -144.471923828125 240.1904296875 C-141.62435802237354 240.268092865413 -138.78597981949846 240.27286405206286 -135.9375 240.25 C-134.486337890625 240.2616015625 -134.486337890625 240.2616015625 -133.005859375 240.2734375 C-127.92609611942201 240.25952986617227 -123.73363681217832 240.02679660690455 -119 238 C-117.8488671875 237.52046874999996 -116.697734375 237.04093750000004 -115.51171875 236.546875 C-104.99727249130609 231.72488438542211 -96.71007801607558 225.24810025964888 -88.00341796875 217.708984375 C-85.05269513062944 215.19191639220156 -82.00416569353928 212.81080209096973 -78.9375 210.4375 C-73.96410764800265 206.56709207289833 -69.06314154535633 202.61772142615342 -64.1875 198.625 C-58.01240321927446 193.57468771221517 -51.722523957183 188.6998474859064 -45.364990234375 183.882080078125 C-40.415064015772344 180.11759511045386 -35.563334696708694 176.2497335163772 -30.75 172.3125 C-29.76290039062502 171.51175048828122 -29.76290039062502 171.51175048828122 -28.755859375 170.69482421875 C-25.60436495467121 168.13796620823894 -22.477947205716504 165.55983304406493 -19.390625 162.92578125 C-18.260956380654733 161.99153450676687 -17.130775611828682 161.05790657756745 -16 160.125 C-15.030624999999986 159.30257812499997 -14.061250000000001 158.48015625 -13.0625 157.6328125 C-8.79506493357556 155.35757288550326 -6.683030178983046 155.9923808016532 -2 157 C-1.009999999999991 157.33000000000004 -0.020000000000010232 157.65999999999997 1 158 C1 158.65999999999997 1 159.32 1 160 C18.138557173358492 164.80415879044597 35.33541560693345 164.816603258785 53 165 C49.18250122181422 173.0585858886294 40.56824234071405 178.19668907924245 33.649658203125 183.578125 C29.025900353647728 187.17636100884238 24.472602481133038 190.85334659701448 19.9375 194.5625 C14.102466521730548 199.32671862533664 8.194813117403129 203.9727628610696 2.20703125 208.54296875 C-2.9876074366947023 212.51045194257551 -8.109123521902518 216.57172852471047 -13.24267578125 220.61767578125 C-14.970209017755252 221.97656619318286 -16.70125465312009 223.33083708576027 -18.43359375 224.68359375 C-25.364360319624154 230.10068799615726 -32.22039363294803 235.60056092461468 -39.036376953125 241.161376953125 C-43.90561059759466 245.12765962839205 -48.81938107551508 249.03152270067721 -53.770263671875 252.895263671875 C-56.83064642455898 255.28611958961773 -59.872373684428084 257.69670891989864 -62.890625 260.140625 C-81.24699270785476 275 -81.24699270785476 275 -85 275 C-85 275.66 -85 276.32 -85 277 C-86.97999999999999 277.33 -88.96000000000001 277.66 -91 278 C-91 278.66 -91 279.32 -91 280 C-93.72658637993288 280.94558382873095 -96.45595153114584 281.8814403687951 -99.1875 282.8125 C-100.311884765625 283.20405273437495 -100.311884765625 283.20405273437495 -101.458984375 283.603515625 C-112.97605310437126 287.506789964243 -123.90358053165244 289.50295403996824 -136.04833984375 289.39111328125 C-138.13054307437136 289.37495699001784 -140.210821914093 289.3910988159234 -142.29296875 289.41015625 C-150.30591215004455 289.4234009808874 -157.41356524438896 288.6306289785274 -165 286 C-165.71220703125 285.7641015625 -166.4244140625 285.528203125 -167.158203125 285.28515625 C-169.01116000613834 284.6559191649935 -170.85003358696804 283.98563126021963 -172.6875 283.3125 C-173.88761718749998 282.8755078125 -175.087734375 282.438515625 -176.32421875 281.98828125 C-177.2072265625 281.6621484375 -178.090234375 281.336015625 -179 281 C-179 280.34 -179 279.68 -179 279 C-180.19625 278.71125 -181.39249999999998 278.4225 -182.625 278.125 C-203.70465885718454 271.01020148462374 -219.4096671849265 249.33283574505782 -228.953125 230.421875 C-241.04102401077893 205.2479935738824 -241.32155909147195 175.8123843237605 -232.18896484375 149.67919921875 C-223.5008299252019 126.59736450544267 -207.23336370509898 108.80155091374303 -187.7314453125 94.30810546875 C-184.62244546726453 91.95925871596211 -181.5965255316234 89.50691258542639 -178.5625 87.0625 C-173.73044463880734 83.17952098329272 -168.8806906160059 79.32167934517878 -164 75.5 C-159.14304259573478 71.6957146111082 -154.31277607725383 67.86002133377377 -149.5 64 C-144.66402970720404 60.122364163368985 -139.81364587327838 56.2645129329008 -134.9375 52.4375 C-134.07378784179687 51.75941284179686 -134.07378784179687 51.75941284179686 -133.192626953125 51.067626953125 C-130.33549728604913 48.82643429217245 -127.47465900738511 46.59013244519602 -124.609375 44.359375 C-118.8958730999695 39.90181258393727 -113.24282397668316 35.39087650216521 -107.6767578125 30.749755859375 C-91.20364903008286 17.035098334489135 -75.09186460187496 5.39680589936728 -54 0 C-53.00871093750001 -0.2977734375000125 -52.017421875 -0.5955468749999966 -50.99609375 -0.90234375 C-34.93618344783104 -5.178418026773812 -15.88355664090804 -4.807666569470257 0 0 Z " fill="#020202" transform="translate(242,152)"/>
<path d="M0 0 C1.2217089843750273 0.26401611328125085 2.4434179687499977 0.5280322265625017 3.7021484375 0.800048828125 C12.877070800396382 2.8012147630738014 22.015269322720485 4.939728999155676 31.125 7.219482421875 C36.39670565019617 8.521480856371838 41.66371548998222 9.640375631813285 47.0078125 10.60546875 C59.291846938843776 12.832384030951573 71.44735763352844 15.699188334913487 83.625 18.4375 C87.30730214104733 19.26419828143686 90.98978264512141 20.09007403237854 94.67269897460938 20.914031982421875 C96.94800005218383 21.42318790119276 99.22294187843374 21.93395272978242 101.49746704101563 22.446563720703125 C106.31701734653171 23.526091293319283 111.11167159369006 24.58490045972185 116 25.3125 C116.12981579924315 33.9792500256639 115.76385113183846 42.582859537578514 115.25949096679688 51.231536865234375 C114.00720903931904 72.93576783929552 113.36825638975154 94.65785392805407 112.75684452056885 116.38754940032959 C112.69848112363434 118.44988885368358 112.63883354023471 120.51218724408955 112.57878112792969 122.57447814941406 C112.50530863728795 125.11340679984505 112.4345571473973 127.65241636003702 112.36714172363281 130.19151306152344 C111.73354900274285 151.999586403359 111.73354900274285 151.999586403359 109 156.3125 C106.70204557168609 158.20596755190155 104.41537883050358 159.95762868520123 102 161.6875 C100.54049230461743 162.7562105529031 99.0822043460148 163.82658841886828 97.625 164.8984375 C96.86445312500001 165.456279296875 96.10390625000002 166.01412109375 95.3203125 166.5888671875 C91.49509128306147 169.43041409318036 87.74981744142724 172.37259763420164 84 175.3125 C78.37808031949129 179.70792822884218 72.72246002291877 184.04879005511677 67 188.3125 C61.32618842449489 192.5428375249915 55.70833030030656 196.8384238973577 50.125 201.1875 C49.376215820312495 201.76910888671875 48.62743164062499 202.3507177734375 47.85595703125 202.949951171875 C44.01973858241138 205.93545836984038 40.20596882535875 208.94474396810847 36.421875 211.99609375 C23.326643181247675 222.4941677313463 9.968511343660111 230.95867438355333 -5.925048828125 236.56640625 C-7.4803952313695845 237.12566482257512 -9.019774609957835 237.72966720614193 -10.549560546875 238.35546875 C-18.475850928456907 241.3829319009098 -25.82955030126277 241.87351371692444 -34.192626953125 241.72412109375 C-36.32746617124644 241.68724145736644 -38.46057580578696 241.68310577666682 -40.595703125 241.68359375 C-47.092427132695775 241.6373805173863 -52.750167531351735 241.28216110433482 -59 239.3125 C-61.52005659367302 238.72582015808672 -64.04092967967392 238.14263928661387 -66.5625 237.5625 C-80.50417361128774 234.1345379952743 -91.83394015607689 228.17813671753004 -103 219.3125 C-104.34384765625 218.24708984375002 -104.34384765625 218.24708984375002 -105.71484375 217.16015625 C-120.88874114254156 204.28751343831777 -132.6226474509906 185.58519864522714 -136.6875 166 C-135.38145650980334 160.89455726559493 -130.70592868187592 158.493527548991 -126.5625 155.625 C-119.27754244323302 151.89368027580227 -113.54505936813248 150.85532549307402 -105.4375 151 C-104.53064453125 150.99677734375 -103.62378906250001 150.9935546875 -102.689453125 150.990234375 C-97.48425245952876 151.03175519249106 -92.76214110759636 151.1045982137508 -88 153.3125 C-86.43359375 156.2890625 -86.43359375 156.2890625 -85.4375 159.9375 C-83.50241479157273 166.13611720863423 -81.36662825348236 170.53723006504202 -77 175.3125 C-76.21625 176.17875 -75.4325 177.045 -74.625 177.9375 C-65.25082172976505 186.41889938735545 -55.14499950695068 191.4790507995024 -42.26171875 191.41015625 C-41.19501953125001 191.40693359375 -40.12832031250002 191.4037109375 -39.029296875 191.400390625 C-37.92650390624999 191.39201171875 -36.82371093749998 191.3836328125 -35.6875 191.375 C-34.00430664062503 191.368232421875 -34.00430664062503 191.368232421875 -32.287109375 191.361328125 C-29.524684903879177 191.34957312725055 -26.762370018639785 191.3331407691932 -24 191.3125 C-24 190.6525 -24 189.9925 -24 189.3125 C-22.112812500000018 188.755625 -22.112812500000018 188.755625 -20.1875 188.1875 C-9.22209249668822 184.44155333737797 -0.9650083165032584 178.06478617361662 7.8203125 170.74609375 C11.80201725883012 167.44100035927877 15.902101690804898 164.32547451619783 20.0625 161.25 C25.37908838578568 157.31079978210698 30.600657172806336 153.28057520145248 35.75 149.125 C40.395969225921135 145.38173551463814 45.06018812677161 141.6702798292331 49.8125 138.0625 C50.767695312499995 137.33546875 51.72289062499999 136.6084375 52.70703125 135.859375 C55 134.3125 55 134.3125 57 134.3125 C56.98428955078123 133.39984375 56.98428955078123 133.39984375 56.96826171875 132.46875 C56.65206368078475 110.69511295530612 57.76989910941927 89.04373714277219 59 67.3125 C57.853378906249986 67.18512451171875 56.70675781249997 67.05774902343751 55.525390625 66.926513671875 C51.14339159027196 66.37719999579929 46.893069175498056 65.48410845348542 42.59375 64.48828125 C40.99487573785689 64.12544313679864 39.39591519275018 63.7629850571295 37.796875 63.40087890625 C36.993789062500014 63.21801330566406 36.19070312500003 63.03514770507813 35.36328125 62.84674072265625 C31.778113406591615 62.036281679956005 28.186170602109826 61.25802440882353 24.59375 60.48046875 C-8.323171567107238 53.32353043873479 -41.15888666781643 45.80792501208984 -74 38.3125 C-72.73486665687307 34.51709997061917 -71.29444127135054 33.818662942272056 -68.0625 31.5 C-66.96743918744363 30.70231722016993 -65.87377940546588 29.902708865295637 -64.78125 29.1015625 C-63.87826171875 28.440756835937492 -63.87826171875 28.440756835937492 -62.95703125 27.7666015625 C-59.27706998888925 25.032338928870274 -55.674542042200926 22.197990791653723 -52.0625 19.375 C-50.51447340956872 18.16777574777811 -48.96629776219288 16.960742605864723 -47.41796875 15.75390625 C-46.67079589843752 15.171411132812494 -45.92362304687498 14.588916015625003 -45.15380859375 13.98876953125 C-41.038936452659584 10.786240385849112 -36.91291999068551 7.599394228527245 -32.7578125 4.44921875 C-31.047956556668908 3.1244436777590465 -29.368278630611144 1.7583776223526542 -27.7421875 0.33203125 C-19.758516080963147 -6.508879358076669 -9.456929806874825 -2.0692769198990746 0 0 Z " fill="#020202" transform="translate(318,62.6875)"/>
<path d="M0 0 C1.5837710039777448 0.34915069070797955 3.167678191718551 0.6976841174359336 4.751708984375 1.045654296875 C8.224580771938975 1.8096439970426434 11.696528864054073 2.5776756207990363 15.16796875 3.34814453125 C21.463310814949466 4.743791982715864 27.762879418304465 6.1199114583657135 34.0625 7.49609375 C37.432762398166744 8.2334067197447 40.802940177225764 8.97110471940234 44.173065185546875 9.70904541015625 C46.37297532773988 10.1907304234491 48.57294586602461 10.672139692134575 50.772979736328125 11.15325927734375 C70.47826058943491 15.46659738253797 70.47826058943491 15.46659738253797 80.241943359375 17.974365234375 C85.59891381960699 19.26739360830111 91.0211545995561 20.241439132331138 96.4375 21.25 C98.71893102737477 21.678725293734853 101.0001890239422 22.108372665359717 103.28125 22.5390625 C104.27318359374999 22.7242041015625 105.26511718749998 22.909345703125 106.287109375 23.10009765625 C108.52720528678304 23.543742296111233 110.72935941764149 24.045461324025123 112.9375 24.625 C113.1655649390857 39.838544017392095 112.43909384898768 54.939840496244166 111.5625 70.125 C111.2837161744718 75.08839042611956 111.00884750593218 80.05199450312077 110.734375 85.015625 C110.631456451416 86.86568145751954 110.631456451416 86.86568145751954 110.52645874023438 88.75311279296875 C109.73783365248426 103.03558340773282 109.09468776118194 117.32423226349694 108.47671508789063 131.61495971679688 C108.37145958049496 133.92198799466746 108.2494735806585 136.2276327451789 108.125 138.53369140625 C107.9895562629398 141.10570532283634 107.94616852552156 143.6157853779717 107.96875 146.19677734375 C107.87899750697909 153.44541306135366 107.87899750697909 153.44541306135366 105.28662109375 156.693359375 C103.0200208814424 158.60978403687372 100.7055140902516 160.17965135333293 98.1875 161.75 C96.42893627804904 162.94160043193895 94.67112455711697 164.13431141279352 92.9140625 165.328125 C92.05458007812501 165.89337890625 91.19509765625003 166.4586328125 90.3095703125 167.041015625 C87.27573068556643 169.0669060634052 84.43040289769942 171.24502621764003 81.5625 173.5 C80.56863281250003 174.26828125 79.574765625 175.0365625 78.55078125 175.828125 C78.00373535156251 176.25158203125 77.45668945312502 176.6750390625 76.89306640625 177.111328125 C76.24772949218749 177.61083984375 75.60239257812498 178.1103515625 74.9375 178.625 C74.09235839843751 179.27919921875 73.24721679687502 179.9333984375 72.37646484375 180.607421875 C69.50467837360878 182.82646211834194 66.62767410116169 185.03860211677517 63.75 187.25 C62.815590820312536 187.9742919921875 61.88118164062496 188.698583984375 60.91845703125 189.44482421875 C60.0443115234375 190.1152978515625 59.170166015625 190.785771484375 58.26953125 191.4765625 C57.48296142578124 192.0832275390625 56.69639160156248 192.689892578125 55.885986328125 193.31494140625 C53.9375 194.625 53.9375 194.625 51.9375 194.625 C51.91244298846266 190.28743855663748 51.8944744112016 185.94991748895444 51.882568359375 181.6123046875 C51.87759543853821 180.14224512142366 51.870814729045605 178.672190349164 51.862060546875 177.2021484375 C51.84968102558946 175.06704511930457 51.84420135446487 172.93200814283804 51.83984375 170.796875 C51.83460693359376 169.519091796875 51.82937011718752 168.24130859375 51.823974609375 166.9248046875 C51.8803559214424 162.51168261149675 52.30142987475972 158.14158604909468 52.68925476074219 153.747314453125 C53.08775762990467 148.73512863349862 53.24417003964959 143.71991544944197 53.40234375 138.6953125 C53.47979323093068 136.4252865727784 53.55743702421012 134.15526726859488 53.63525390625 131.88525390625 C53.67434875488277 130.7177862548828 53.71344360351566 129.55031860351562 53.75372314453125 128.34747314453125 C54.4484360645406 107.73998737791356 55.31042455995947 87.18195367537379 56.9375 66.625 C56.178841400146496 66.51760498046875 55.42018280029299 66.4102099609375 54.63853454589844 66.299560546875 C45.831868965486024 65.00454458648375 37.14268263386816 63.294833409966046 28.44140625 61.4375 C26.994669361210356 61.131051198241764 25.547885969081506 60.82482186510596 24.101058959960938 60.518798828125 C21.09624825019273 59.88238586240186 18.09199610899111 59.24341757964723 15.088134765625 58.6025390625 C11.250696105429483 57.78402466390162 7.411925957483618 56.97195822693371 3.5727243423461914 56.16175842285156 C0.5961286987804897 55.53287437733737 -2.37975043912229 54.900652704278784 -5.355424880981445 54.267425537109375 C-6.770910790502512 53.96661269446041 -8.186612034060317 53.666811154434356 -9.602537155151367 53.368072509765625 C-11.578760159219769 52.95058812433949 -13.553929520726513 52.52812566144331 -15.529052734375 52.10546875 C-16.649001312255848 51.86723388671875 -17.768949890136696 51.6289990234375 -18.922836303710938 51.383544921875 C-22.043723295506084 50.629536464800424 -25.027383806250782 49.666975413316514 -28.0625 48.625 C-29.756885846422847 48.23205186886983 -31.45934585523122 47.87238910689686 -33.16796875 47.546875 C-34.625052490234395 47.26396606445313 -34.625052490234395 47.26396606445313 -36.111572265625 46.975341796875 C-37.14725341796873 46.77722900390625 -38.18293457031251 46.5791162109375 -39.25 46.375 C-52.91096378003073 43.70817559404409 -66.48817059212132 40.69900376294285 -80.0625 37.625 C-76.60562334629361 34.034677740176285 -73.0496606981431 30.952790277970735 -69.0625 27.9375 C-67.90617472319241 27.058692789626235 -66.74992689670535 26.179783663144477 -65.59375 25.30078125 C-65.00722656250002 24.856860351562503 -64.42070312499999 24.412939453125 -63.81640625 23.95556640625 C-61.05393463683117 21.859871766526975 -58.30875538840917 19.741870414895356 -55.5625 17.625 C-54.48447207436419 16.795446750508926 -53.40634672598003 15.966020089572343 -52.328125 15.13671875 C-51.79251953124998 14.724702148437501 -51.256914062500016 14.312685546874999 -50.705078125 13.88818359375 C-49.02766659640287 12.598212242834194 -47.34981770842518 11.308811568729663 -45.671875 10.01953125 C-45.11483886718747 9.59067626953125 -44.557802734375 9.161821289062502 -43.98388671875 8.719970703125 C-42.87906534431454 7.87223090179436 -41.771354724744754 7.028241889819528 -40.66064453125 6.188232421875 C-38.22796544594439 4.3409791486762295 -35.88929269195995 2.4668299823685818 -33.6328125 0.40625 C-24.081418639670176 -8.159412821363397 -11.421769716284075 -2.554605347110222 0 0 Z " fill="#020202" transform="translate(396.0625,7.375)"/>
<path d="M0 0 C5.514987046627709 0.40991280699606136 10.84979904055379 1.5151376405147232 16.2421875 2.70703125 C17.009431457519526 2.8736979675292957 17.77667541503905 3.0403646850585915 18.567169189453125 3.2120819091796875 C21.003844061452043 3.7422641651186126 23.439418115381955 4.277321861872551 25.875 4.8125 C27.468681422776967 5.15982002505757 29.062431029942957 5.506827338787801 30.65625 5.853515625 C41.44452761869735 8.203916416840826 52.223135878225435 10.59788904239494 63 13 C61.89505622615724 16.314831321528345 61.295158730073695 16.796951098652414 58.578125 18.77734375 C57.53398437499999 19.547880859375 57.53398437499999 19.547880859375 56.46875 20.333984375 C55.73656249999999 20.863144531249986 55.00437499999998 21.3923046875 54.25 21.9375 C52.81721463854984 22.987607976242685 51.38491210653581 24.038375093637768 49.953125 25.08984375 C49.271855468750005 25.588952636718744 48.59058593750001 26.08806152343749 47.888671875 26.602294921875 C44.66226642665225 28.9899850966153 41.62936902379914 31.27229206623224 39 34.3125 C37 36 37 36 34.5625 35.9375 C32 35 32 35 29.88671875 33.60546875 C13.32143359453977 24.39256996935839 -8.64277431600101 26.084779363387128 -27 26 C-21.714442828708286 16.826435716396446 -12.390779230279492 10.381400816293421 -4.21484375 3.8125 C-1.9724643263607788 2.0387364339315894 -1.9724643263607788 2.0387364339315894 0 0 Z " fill="#070707" transform="translate(228,111)"/>
<path d="M0 0 C0.6599999999999966 0.3299999999999983 1.3199999999999932 0.6599999999999966 2 1 C-1.960000000000008 4.959999999999994 -5.9199999999999875 8.919999999999987 -10 13 C-1.75 13.330000000000013 6.5 13.659999999999997 15 14 C15 14.330000000000013 15 14.659999999999997 15 15 C5.430000000000007 15 -4.139999999999986 15 -14 15 C-11.29819290470519 10.496988174508658 -9.167130452331094 8.088644516762741 -5.3125 4.6875 C-4.8013867187499955 4.233105468749997 -4.290273437499991 3.7787109374999943 -3.763671875 3.310546875 C-2.514236645966321 2.201235223054212 -1.2578217660100393 1.0997932249493658 0 0 Z " fill="#565656" transform="translate(215,122)"/>
<path d="M0 0 C1.2375000000000114 -0.020624999999995453 2.4749999999999943 -0.041249999999990905 3.75 -0.0625 C4.446093749999989 -0.07410156250000455 5.142187499999977 -0.0857031250000091 5.859375 -0.09765625 C8 0 8 0 9.658203125 0.5 C12.968732193044957 1.2068352305416852 16.241563952731326 1.1224458855057833 19.609375 1.09765625 C20.3361846923828 1.0962413024902276 21.062994384765602 1.094826354980455 21.81182861328125 1.0933685302734375 C24.12459493827663 1.0877879205767726 26.437263118949545 1.0752390412279738 28.75 1.0625 C30.32161318143511 1.057482491387816 31.893227886046304 1.052920022167143 33.46484375 1.048828125 C37.309933431884986 1.0378248451190188 41.15495009589807 1.0205736124272562 45 1 C45 1.660000000000025 45 2.319999999999993 45 3 C39.63047337197531 4.789842209341543 33.78369379213643 3.9357004417288977 28.1689453125 3.758056640625 C25.904447803826997 3.6884057487554287 23.63992667109602 3.633687318676664 21.375 3.580078125 C14.048891788705475 3.377030383125941 7.1035574192329705 2.973210394231387 0 1 C0 0.6700000000000159 0 0.339999999999975 0 0 Z " fill="#909090" transform="translate(253,314)"/>
<path d="M0 0 C0.6599999999999966 0.3299999999999841 1.3199999999999932 0.660000000000025 2 1 C-2.6200000000000045 5.6200000000000045 -7.239999999999995 10.240000000000009 -12 15 C-12 10.398528738130665 -9.102281515389194 8.193114082281227 -6 5 C-4.05341966622575 3.2419398336858762 -2.064565574438518 1.622158665630252 0 0 Z " fill="#CACCCC" transform="translate(77,291)"/>
<path d="M0 0 C0 0.660000000000025 0 1.3199999999999932 0 2 C-3.6941820143837276 3.231394004794595 -6.2056260955203015 2.644327644156931 -10 2 C-6.3558226008146335 -0.429451599456911 -4.287587281015931 -0.16179574645343564 0 0 Z " fill="#595959" transform="translate(298,315)"/>
</svg>
